<?xml version="1.0" encoding="utf-8"?>
<!-- Generator: Adobe Illustrator 18.0.0, SVG Export Plug-In . SVG Version: 6.00 Build 0)  -->
<!DOCTYPE svg PUBLIC "-//W3C//DTD SVG 1.1//EN" "http://www.w3.org/Graphics/SVG/1.1/DTD/svg11.dtd">
<svg version="1.1" id="Layer_1" xmlns="http://www.w3.org/2000/svg" xmlns:xlink="http://www.w3.org/1999/xlink" x="0px" y="0px"
	 viewBox="0 0 640 480" enable-background="new 0 0 640 480" xml:space="preserve">
<g>
	<g>
		<path fill="#64A446" d="M267.4,287.9h-78.1c-52.8,0-94.7,42-95.7,93.8c-2.9,15.7-6.8,43,2.9,52.8c26.3,25.4,86,35.2,131.8,35.2
			c46.9,0,105.5-9.8,131.8-35.2c9.7-9.8,5.9-37.1,2.9-52.8C362.2,329.9,319.3,287.9,267.4,287.9z M347.6,419.8
			c-18.6,18.6-64.5,30.3-118.1,30.3c-53.7,0-100.6-11.7-118.1-29.3c-2-3.9-11.3-110,78.1-114.4c20.3-1,79.1,0,79.1,0
			C356.2,306.5,349.5,416.9,347.6,419.8L347.6,419.8z"/>
		<path fill="#64A446" d="M227.4,270.3c42.9,0,78.1-35.2,77.2-77.3c0-43-34.2-77.3-77.2-77.3c-42,0-77.2,35.2-77.2,77.3
			C150.2,236.1,184.4,270.3,227.4,270.3z M227.4,135.4c32.3,0,58.6,26.3,58.6,57.7s-26.3,57.7-58.6,57.7s-58.6-26.3-58.6-57.7
			S195.2,135.4,227.4,135.4z"/>
		<path fill="#64A446" d="M317.3,10.3v141.8h30.3v69.4l69.4-69.4h132.8V10.3H317.3z M531.1,133.5H410l-42.9,43v-43h-30.3V29.9h194.3
			V133.5z"/>
		<path fill="#64A446" d="M431.6,57.2c0.9-2,2.9-2.9,4.9-2.9c2,0,3.9,0.9,3.9,0.9c0.9,2,2,3.9,2,5.9c0,2.9-0.9,4.9-2,5.9l-7.8,8.8
			c-2,2.9-3.9,4.9-4.9,6.8c-0.9,2-0.9,4.9-0.9,7.8v8.8h17.6v-7.8c0-2,0-3.9,0.9-4.9s2-2,3.9-3.9c2-2,3.9-3.9,5.9-5.9
			c0-0.9,0.9-2,2-2.9c0.9-0.9,2-2,2-2.9c0.9,0,0.9-0.9,2-2.9c0.9-0.9,0.9-3.9,0.9-6.8c0-6.8-2-12.7-6.8-16.6
			c-4.9-3.9-10.8-5.9-18.6-5.9c-6.8,0-13.7,2-18.6,6.8c-4.9,3.9-7.8,10.8-8.8,18.6h19.5C429.6,61.1,430.5,59.2,431.6,57.2
			L431.6,57.2z"/>
		<path fill="#64A446" d="M436.4,103.1c-2.9,0-5.9,0.9-7.8,2.9c-2,2-2.9,4.9-2.9,7.8c0,2.9,0.9,5.9,2.9,7.8c2,2,3.9,2.9,7.8,2.9
			c2.9,0,5.9-0.9,7.8-2.9c2-2,2.9-4.9,2.9-7.8c0-2.9-0.9-5.9-2.9-7.8S439.3,103.1,436.4,103.1z"/>
	</g>
</g>
</svg>
