<?xml version="1.0" encoding="utf-8"?>
<!-- Generator: Adobe Illustrator 18.0.0, SVG Export Plug-In . SVG Version: 6.00 Build 0)  -->
<!DOCTYPE svg PUBLIC "-//W3C//DTD SVG 1.1//EN" "http://www.w3.org/Graphics/SVG/1.1/DTD/svg11.dtd">
<svg version="1.1" id="Layer_1" xmlns="http://www.w3.org/2000/svg" xmlns:xlink="http://www.w3.org/1999/xlink" x="0px" y="0px"
	 viewBox="0 0 640 480" enable-background="new 0 0 640 480" xml:space="preserve">
<g>
	<g>
		<path fill="#65A447" d="M547.1,344.3c-1.2-2.3-3.3-3.9-5.9-4.5c-0.6-0.1-51.5-11.4-116.4-20.3c-0.1-0.3-0.2-0.6-0.3-0.9
			c-28.6-66.7-38.1-66.7-43.2-66.7c-6.1,0-36.6,6.3-61.4,11.6v-64.2c0.4,0,0.7,0,1.1-0.1c8.5,2.3,17.1,3.4,25.7,3.4
			c25.9,0,51.2-10.2,70.2-29.2c26.3-26.3,35.7-64.7,24.5-100.2c-0.9-2.7-3-4.9-5.7-5.7c-35.5-11.2-73.9-1.8-100.2,24.5
			c-4.1,4.1-7.7,8.5-11,13.1c-3.3-26-15-50.6-34.3-69.9C258.5,3.4,212.1-7.9,169.2,5.6c-2.7,0.9-4.9,3-5.7,5.7
			c-13.5,42.9-2.2,89.3,29.6,121.1c22.9,22.9,53.5,35.2,84.8,35.2c8.2,0,16.4-0.9,24.5-2.6v102.2c-3.4,0.7-6.4,1.4-8.9,2
			c-18.4-3.5-48.6-7.4-58.7,2.8l-16.1,16.1l-24.4,8.1c-29.6,9.9-39.7,53.6-40.8,58.8c-10-6.1-20-13.3-29.5-21.9
			c-1.6-1.5-3.7-2.3-5.9-2.3c-19.4,0-26.3,9.5-26.3,17.5c0,2.5,0,7.2,18.4,28.6c7.1,8.3,22.1,24.8,42.7,42.7
			c31.6,27.5,78.6,60.3,123.1,60.3c51.3,0,88-10.8,114.8-18.7c14.5-4.3,26-7.6,34.3-7.6c26.7,0,78.2-8.5,80.4-8.9
			c3-0.5,5.6-2.5,6.7-5.4l35.1-87.7C548.5,349.3,548.3,346.6,547.1,344.3z M348,104.4c20.6-20.6,50.1-28.6,78.1-21.5
			c7.1,28-0.9,57.5-21.5,78.1c-18.8,18.8-45.1,27.1-70.9,22.9c7.1-11.8,17.1-25.4,25.3-29.5c4.3-2.2,6.1-7.4,3.9-11.8
			c-2.2-4.3-7.4-6.1-11.8-3.9c-10.3,5.1-19.9,16.9-27.1,27.5C322.9,143.5,331.4,121,348,104.4z M262.5,101.2
			c23,15.3,31.3,47,31.5,47.5c0,0,0,0,0,0.1c-32.2,5.1-65-5.3-88.5-28.8c-26.1-26-36-63.6-26.6-99c35.4-9.4,72.9,0.5,99,26.6
			c22.7,22.7,33.2,54.2,29.3,85.4c-5.1-12.9-15.7-33.6-34.9-46.4c-4-2.7-9.5-1.6-12.2,2.4C257.4,93.1,258.5,98.5,262.5,101.2z
			 M170.7,358.9c2.2-10.8,11.6-40.2,29.3-46l26.3-8.8c1.3-0.4,2.5-1.2,3.4-2.1l17.4-17.4c4.3-2.7,25.6-1.6,44.9,2.3
			c1.2,0.2,2.4,0.2,3.6,0c34.9-7.8,73.6-15.8,83.8-17.1c5.1,5.6,16,26.7,25.2,47.2c-10.2-1.3-20.6-2.4-31.1-3.5
			c-87.2-8.7-137.3-1.2-149.1,22.4c-2.4,4.7-2.2,9.9,0.4,14.1c7.3,11.8,33.1,16.1,95.2,16.1c8.8,0,12.9,2.3,13.8,4.3
			c0.7,1.8-0.2,4.6-2.2,6.7c-4.5,2.7-34.1,11.2-76.7,8.5c-24-1.5-55.3-7-86.5-22.4C169.5,362,170.3,360.5,170.7,358.9z M498,428.3
			c-13.5,2.1-51.9,7.9-72.7,7.9c-10.9,0-23.4,3.7-39.3,8.4c-25.8,7.6-61.1,18-109.9,18c-37.9,0-79.8-28.8-108.2-53
			c-30.3-25.8-50.9-50.8-57-60c1.2-0.3,2.7-0.6,4.2-0.8c47.8,41.5,103.4,52.6,141.9,54.6c39.8,2,78.6-5.5,86.7-13.5
			c7.2-7.2,9.7-17.7,6.2-26.1c-2.3-5.7-9.4-15.2-30-15.2c-54.7,0-72.8-3.8-78.6-6.8c5.6-6.3,29.5-20.9,130.3-10.8
			c68.1,6.8,131.6,19.1,155.6,24L498,428.3z"/>
	</g>
</g>
</svg>
