<?xml version="1.0" encoding="utf-8"?>
<!-- Generator: Adobe Illustrator 18.0.0, SVG Export Plug-In . SVG Version: 6.00 Build 0)  -->
<!DOCTYPE svg PUBLIC "-//W3C//DTD SVG 1.1//EN" "http://www.w3.org/Graphics/SVG/1.1/DTD/svg11.dtd">
<svg version="1.1" id="Capa_1" xmlns="http://www.w3.org/2000/svg" xmlns:xlink="http://www.w3.org/1999/xlink" x="0px" y="0px"
	 viewBox="0 0 640 480" enable-background="new 0 0 640 480" xml:space="preserve">
<g>
	<path fill="#65A447" d="M333.1,303.9c8.3-0.6,15.9-4.9,20.8-11.7l74.9-103.6c2.3-3.2,2-7.6-0.8-10.3c-2.8-2.8-7.2-3.1-10.3-0.8
		l-103.6,74.9c-6.8,4.9-11,12.5-11.6,20.8s2.4,16.5,8.3,22.4c5.4,5.4,12.6,8.4,20.1,8.4C331.6,304,332.3,304,333.1,303.9z
		 M318.4,274.5c0.3-3.7,2.2-7,5.1-9.1l63.2-45.7L341,282.8c-2.2,3-5.5,4.8-9.2,5.1c-3.6,0.2-7.2-1-9.8-3.6
		C319.4,281.8,318.1,278.2,318.4,274.5z"/>
	<path fill="#65A447" d="M512.3,156.5c-0.1-0.2-0.1-0.3-0.2-0.5c-0.1-0.2-0.2-0.2-0.4-0.4c-8.1-13.9-17.7-26.8-28.5-38.5l17.2-17.2
		l11.3,11.3l33.9-33.9l-33.9-33.9l-33.9,33.9l11.3,11.3l-17.2,17.2c-11.7-10.9-24.6-20.4-38.5-28.5c-0.2-0.1-0.2-0.3-0.4-0.4
		c-0.2-0.1-0.3-0.1-0.5-0.2C407.8,62.5,380,53,350.4,49.5V40h12c11,0,20-9,20-20s-9-20-20-20h-72c-11,0-20,9-20,20s9,20,20,20h12
		v9.2c-8.6,0.9-17.3,2.3-25.8,4.3c-4.3,1-7,5.3-6,9.6c1,4.3,5.3,7,9.6,6c7.4-1.7,14.8-3,22.2-3.8l8.6-0.7c2.6-0.2,5-0.3,7.4-0.5V80
		c0,4.4,3.6,8,8,8c4.4,0,8-3.6,8-8V64.2c30.1,1.4,58.4,9.5,83.6,22.8l-7.9,13.7c-2.2,3.8-0.9,8.7,2.9,10.9c1.3,0.7,2.6,1.1,4,1.1
		c2.8,0,5.5-1.4,6.9-4l7.9-13.6c25,15.9,46.3,37.1,62.2,62.2l-13.6,7.9c-3.8,2.2-5.1,7.1-2.9,10.9c1.5,2.6,4.2,4,6.9,4
		c1.4,0,2.7-0.3,4-1.1L502,171c13.5,25.6,21.6,54.4,22.8,85H509c-4.4,0-8,3.6-8,8s3.6,8,8,8h15.8c-1.2,30.6-9.3,59.4-22.8,85
		l-13.7-7.9c-3.8-2.2-8.7-0.9-10.9,2.9c-2.2,3.8-0.9,8.7,2.9,10.9l13.6,7.9c-15.9,25-37.1,46.3-62.2,62.2l-7.9-13.6
		c-2.2-3.8-7.1-5.1-10.9-2.9c-3.8,2.2-5.1,7.1-2.9,10.9L418,441c-25.2,13.3-53.6,21.4-83.6,22.8V448c0-4.4-3.6-8-8-8s-8,3.6-8,8
		v15.8c-12.8-0.4-25.6-2-38.2-4.9c-4.3-1-8.6,1.7-9.6,6c-1,4.3,1.7,8.6,6,9.6c16,3.7,32.3,5.5,48.5,5.5c0.4,0,0.8,0,1.2,0
		c0.1,0,0.1,0,0.1,0c0.1,0,0.1,0,0.2,0c38.5-0.3,74.5-10.6,105.8-28.6c0.2-0.1,0.5-0.2,0.8-0.3c0.2-0.1,0.2-0.2,0.4-0.4
		c32.3-18.8,59.3-45.8,78.2-78.1c0.2-0.2,0.3-0.4,0.5-0.6c0.1-0.2,0.1-0.3,0.2-0.5C530.5,339.8,541,303.1,541,264
		S530.5,188.2,512.3,156.5z M511.7,66L523,77.3l-11.3,11.3l-11.3-11.3L511.7,66z M318.3,48.2V24h-28c-2.2,0-4-1.8-4-4s1.8-4,4-4h72
		c2.2,0,4,1.8,4,4s-1.8,4-4,4h-28v24.2c-2.8-0.1-5.4-0.2-8-0.2c-0.2,0-0.5,0-0.7,0c-0.2,0-0.4,0-0.6,0c-1.3,0-2.6,0.1-3.9,0.1
		C320.2,48.1,319.3,48.1,318.3,48.2z"/>
	<path fill="#65A447" d="M254.3,112h-40c-4.4,0-8,3.6-8,8s3.6,8,8,8h40c4.4,0,8-3.6,8-8S258.8,112,254.3,112z"/>
	<path fill="#65A447" d="M254.3,168h-80c-4.4,0-8,3.6-8,8s3.6,8,8,8h80c4.4,0,8-3.6,8-8S258.8,168,254.3,168z"/>
	<path fill="#65A447" d="M254.3,224h-120c-4.4,0-8,3.6-8,8s3.6,8,8,8h120c4.4,0,8-3.6,8-8S258.8,224,254.3,224z"/>
	<path fill="#65A447" d="M254.3,280h-152c-4.4,0-8,3.6-8,8s3.6,8,8,8h152c4.4,0,8-3.6,8-8S258.8,280,254.3,280z"/>
	<path fill="#65A447" d="M254.3,336h-104c-4.4,0-8,3.6-8,8s3.6,8,8,8h104c4.4,0,8-3.6,8-8S258.8,336,254.3,336z"/>
	<path fill="#65A447" d="M254.3,392h-56c-4.4,0-8,3.6-8,8s3.6,8,8,8h56c4.4,0,8-3.6,8-8S258.8,392,254.3,392z"/>
</g>
</svg>
