<?xml version="1.0" encoding="utf-8"?>
<!-- Generator: Adobe Illustrator 18.0.0, SVG Export Plug-In . SVG Version: 6.00 Build 0)  -->
<!DOCTYPE svg PUBLIC "-//W3C//DTD SVG 1.1//EN" "http://www.w3.org/Graphics/SVG/1.1/DTD/svg11.dtd">
<svg version="1.1" id="Layer_1" xmlns="http://www.w3.org/2000/svg" xmlns:xlink="http://www.w3.org/1999/xlink" x="0px" y="0px"
	 viewBox="0 0 640 480" enable-background="new 0 0 640 480" xml:space="preserve">
<g>
	<g>
		<path fill="#65A447" d="M429,415.3l2.4-2.2c0.4-0.3,0.7-0.6,1-1c1.3-1.5,29.9-34.5,40.7-59.8h5.2c14.8,0,26.8-12,26.8-26.8V283
			c0-14.8-12-26.8-26.8-26.8h-5.8c-8.9-23.2-24.1-44.2-44.3-61.2c-2.9-10.5-0.8-21.6,6.6-33.3c4.1-6.6,4.1-14.8-0.1-21.4
			c-4.2-6.6-11.6-10.1-19.3-9.1c-28.3,3.5-45.2,16.4-55.1,28.3c-9.3-2.5-18.9-4.5-28.6-5.6c-5.3-0.6-10.2,3.1-10.8,8.5
			c-0.6,5.3,3.1,10.2,8.5,10.8c10.8,1.3,21.4,3.6,31.6,6.9c4.1,1.3,8.5-0.3,11-3.8c6.7-9.9,20.1-22.4,45.7-25.7c0.2,0,0.4,0,0.6,0.3
			s0.1,0.5,0,0.6c-10.2,16.3-13.2,33.2-8.7,49.1c0.1,2.8,1.4,5.5,3.6,7.2c20.7,16.6,35.6,37.8,43.3,61.2c1.3,4,5.1,6.7,9.2,6.7l0,0
			h12.5c4.1,0,7.4,3.3,7.4,7.4v42.4c0,4.1-3.3,7.4-7.4,7.4h-11.9c-4.2,0-8,2.7-9.3,6.9c-5.5,17.9-29.6,48.3-39,59.2l-2.2,1.9
			c-20.2,18.2-22.2,39.8-22.3,46.2v13.6h-55.9v-13.1c0-2.7-1.2-5.4-3.2-7.2c-2.1-1.9-4.8-2.7-7.5-2.4c-14.3,1.5-28.7,1.3-42.6-0.6
			c-2.7-0.4-5.6,0.5-7.6,2.4c-2.2,1.9-3.3,4.5-3.3,7.3v13.6h-55.9v-3.8c0-0.1,0-0.3,0-0.4c-0.5-10.3-3.7-36.3-24.1-57.3
			c-9.6-9.9-18.2-23-25.7-38.9c-0.1-0.1-0.1-0.2-0.2-0.4c-4.4-8.4-7.7-17.3-10-26.7l-0.1-0.4c0-0.1-0.1-0.2-0.1-0.3
			c-3.5-11.8-3.1-26.5-3.1-26.6c0-0.1,0-0.2,0-0.3c0-6.5,0.6-13,1.6-19.4c0.9-5.3-2.6-10.3-7.9-11.2c-5.3-0.9-10.3,2.6-11.2,7.9
			c-1.3,7.3-1.9,14.9-1.9,22.4c-0.1,2-0.3,18.4,3.9,32.6l0,0c2.5,10.5,6.5,20.8,11.5,30.6c8.2,17.8,18.1,32.6,29.2,44.1
			c15.6,16.1,18.2,36.2,18.6,44.5v4c0,0.4,0,0.7,0.1,1.3c0.7,9.9,9,17.7,18.9,17.7h56.7c10.5,0,19-8.5,19-19v-3.2
			c8.5,0.7,16.9,0.8,25.6,0.4v2.8c0,10.5,8.5,19,19,19H394c10.5,0,19-8.5,19-19v-13.8C413.2,444.2,414.3,428.5,429,415.3z"/>
		<path fill="#65A447" d="M135.6,187.5c0,44,35.7,79.8,79.8,79.8c44,0,79.8-35.7,79.8-79.8c0-44-35.7-79.8-79.8-79.8
			C171.5,107.6,135.6,143.4,135.6,187.5z M275.9,187.5c0,33.3-27.1,60.4-60.4,60.4S155,220.8,155,187.5s27.1-60.4,60.4-60.4
			S275.9,154.2,275.9,187.5z"/>
		<path fill="#65A447" d="M362.3,55.6c0-30.7-25-55.6-55.6-55.6S251,25,251,55.6s25,55.6,55.6,55.6S362.3,86.3,362.3,55.6z
			 M270.3,55.6c0-20,16.3-36.2,36.2-36.2s36.2,16.3,36.2,36.2s-16.3,36.2-36.2,36.2S270.3,75.6,270.3,55.6z"/>
	</g>
</g>
</svg>
